<?xml version="1.0" encoding="utf-8"?>
<!-- Generator: Adobe Illustrator 22.0.1, SVG Export Plug-In . SVG Version: 6.00 Build 0)  -->
<svg version="1.1" id="Layer_1" xmlns="http://www.w3.org/2000/svg" xmlns:xlink="http://www.w3.org/1999/xlink" x="0px" y="0px"
	 viewBox="0 0 600 173.2" style="enable-background:new 0 0 600 173.2;" xml:space="preserve">
<style type="text/css">
	.st0{fill:#00B8C7;}
</style>
<g id="JC62lD.tif">
	<g>
		<path class="st0" d="M519.9,126.1c-21.4-25.7-42.6-51.2-64-76.8c-1.1,1.3-0.6,2.5-0.6,3.7c0,21.3-0.1,42.5,0,63.8
			c0,3-0.7,3.9-3.3,3.7c-2.6-0.3-5.3-0.2-7.9,0c-1.8,0.1-2.4-0.6-2.4-2.7c0.1-3.8,0-7.6,0-11.5c0-30.3,0-60.5,0-90.8
			c0-1.2-0.3-2.4,0.5-4.1c21.4,25.7,42.7,51.2,64.1,76.9c0.9-1.3,0.5-2.5,0.5-3.7c0-20.9,0.1-41.9-0.1-62.8c0-3.6,0.9-4.5,3.8-4.1
			c2.1,0.3,4.3,0.2,6.5,0c2.6-0.3,3.5,0.6,3.4,3.8c-0.1,21.5-0.1,43-0.1,64.5c0,12.2,0,24.3,0,36.5
			C520.3,123.6,520.6,124.7,519.9,126.1z"/>
		<path class="st0" d="M355.4,120.4c-4.9,0-9.6-0.1-14.3,0c-1.6,0-2.2-1.1-2.9-2.3c-7.5-12.4-15-24.7-22.4-37.1
			c-1.1-1.9-2.3-2.7-4.3-2.6c-5.2,0.2-10.4,0.2-15.6,0c-2.2-0.1-2.8,0.8-2.8,3.3c0.1,11.7-0.1,23.4,0.1,35.1c0,3-0.8,3.9-3.3,3.7
			c-2.6-0.2-5.3-0.2-7.9,0c-1.8,0.1-2.4-0.6-2.4-2.7c0.1-4.9,0-9.9,0-14.8c0-26.9,0-53.8,0-80.6c0-4.5,0-4.5,4-4.5
			c11.2,0,22.3-0.1,33.5,0.1c5.5,0.1,10.9,0.7,16.1,3.2c9.5,4.7,15.2,15,15.1,27.7c-0.1,12-6.1,22.2-15.7,26.5
			c-3.9,1.8-3.9,1.8-1.3,5.8c7.5,11.9,15.1,23.8,22.6,35.8C354.4,117.8,355.3,118.6,355.4,120.4z M308.5,32.7c0-0.1,0-0.2,0-0.3
			c-4.3,0-8.6,0.1-12.9,0c-1.7,0-2.5,0.6-2.4,2.7c0.1,9.1,0,18.2,0,27.3c0,1.6,0.4,2.5,2,2.5c8.9-0.2,17.8,0.6,26.7-0.5
			c8.2-1,13.5-7.8,13.4-16.5c-0.2-8.5-5.5-14.5-13.8-15.1C317.1,32.4,312.8,32.7,308.5,32.7z"/>
		<path class="st0" d="M248.4,67.1c5.3,0,10.6,0,15.9,0c1.2,0,2.4-0.3,2.4,1.9c0.4,13.9-1.8,26.9-10.4,37.5
			c-15.5,19.2-41.1,21.5-59,4.9c-14.6-13.6-20.5-31.4-16.9-52.5c3.6-21.3,15.1-35.4,33.3-41c18-5.6,33.6,0.2,46.5,15.7
			c1.3,1.5,1.4,2.6,0,4.1c-2.1,2.3-4.2,4.8-6.1,7.3c-1.2,1.5-1.8,1.4-2.9-0.1c-4.8-6.6-10.5-11.6-18.1-13.5
			c-19.2-4.8-38,10.9-39.9,33.4c-1.8,21.1,9.7,38.8,27.6,42.7c13.4,2.9,27.7-7.6,30.7-22.4c0.5-2.6,0-3.4-2.3-3.4
			c-5.6,0.1-11.2-0.1-16.7,0.1c-2.2,0.1-2.9-0.8-2.8-3.3c0.2-2.8,0.1-5.6,0-8.4c-0.1-2.2,0.6-2.9,2.5-2.9
			C237.7,67.1,243.1,67.1,248.4,67.1z"/>
		<path class="st0" d="M61.4,131c-1.1-0.6-1.3-1.8-1.8-2.7C40.1,86.9,20.7,45.4,1.2,4c-1.8-3.9-1.8-3.9,1.9-3.9
			c3.1,0,6.3,0.1,9.4-0.1c2.1-0.1,3.1,0.8,4.1,2.9C30.8,33.3,45.1,63.7,59.4,94c0.5,1.1,1.1,2.1,1.8,3.6c0.8-1.6,1.4-2.7,2-4
			c14-30,28.1-60,42-90c1.3-2.8,2.8-3.8,5.5-3.6c2.9,0.2,5.9,0,8.8,0.1c3.3,0,3.3,0,1.8,3.3c-5.6,11.9-11.1,23.8-16.7,35.6
			C90.7,68.6,76.8,98.2,63,127.8C62.5,128.9,61.9,130,61.4,131z"/>
		<path class="st0" d="M572.6,173.2c-4.7-5.8-8.8-10.9-12.9-16c-0.9-1.1-0.6-2.6-0.6-3.9c0-38.8,0-77.6,0-116.5c0-4.5,0-4.5-4-4.5
			c-6.9,0-13.7-0.1-20.6,0c-1.9,0-2.6-0.6-2.5-2.9c0.2-2.8,0.2-5.6,0-8.4c-0.2-2.7,0.7-3.4,2.9-3.4c18.8,0.1,37.6,0,56.4,0.1
			c2.6,0,6-1.3,7.7,0.5c1.8,2,0.6,6,0.6,9.1c0,5.3,0.9,5-4.4,5c-6.4,0-12.7,0.2-19.1-0.1c-2.8-0.1-3.6,0.8-3.6,4.1
			c0.1,43.9,0.1,87.8,0.1,131.7C572.6,169.4,572.6,170.8,572.6,173.2z"/>
		<path class="st0" d="M134.1,12c1.1,0.7,1.4,1.8,1.8,2.8c12,25.5,24,51,36,76.5c1.7,3.7,1.7,3.7-1.8,3.7c-23.8,0-47.6,0-71.3,0
			c-3.7,0-3.7,0-2-3.7c11.9-25.4,23.9-50.8,35.8-76.3C133,14,133.6,13,134.1,12z M151,80.8c-5.7-12.2-11.1-23.7-16.8-35.6
			c-2,4.2-3.6,7.7-5.3,11.3c-3.4,7.3-6.9,14.6-10.3,21.9c-0.4,0.9-1.6,2.4,0.7,2.4C129.7,80.8,140,80.8,151,80.8z"/>
		<path class="st0" d="M392.6,11.5c6.3,13.5,12.5,26.6,18.6,39.6c6.4,13.5,12.7,27.1,19.1,40.6c1.5,3.2,1.5,3.2-1.6,3.2
			c-24.2,0-48.3,0-72.5,0c-1.8,0-3.1,0.1-1.7-2.8c12.4-26.3,24.7-52.6,37.1-78.9C391.8,12.9,392.1,12.5,392.6,11.5z M392.5,45.1
			c-5.5,11.7-10.7,22.8-16,34c-0.7,1.5,0.1,1.7,1.2,1.7c9.8,0,19.5,0,29.3,0c1.8,0,1.9-0.8,1.1-2.4C403,67.5,397.9,56.7,392.5,45.1z
			"/>
	</g>
</g>
</svg>
